<?xml version="1.0" encoding="utf-8"?>
<svg version="1.1" xmlns:xlink="http://www.w3.org/1999/xlink" width="35px" height="18px" xmlns="http://www.w3.org/2000/svg">
  <g transform="matrix(1 0 0 1 -148 -825 )">
    <path d="M 35 3.99130434782609  C 35 4.29855072463768  34.8624896608768 4.56231884057971  34.5874689826303 4.78260869565217  L 18.477047146402 17.6695652173913  C 18.2020264681555 17.8898550724638  17.8763440860215 18  17.5 18  C 17.1236559139785 18  16.7979735318445 17.8898550724638  16.522952853598 17.6695652173913  L 0.412531017369727 4.78260869565217  C 0.137510339123243 4.56231884057971  0 4.29855072463768  0 3.99130434782609  C 0 3.68405797101449  0.137510339123243 3.42028985507246  0.412531017369727 3.2  L 4.01674937965261 0.330434782608696  C 4.29177005789909 0.110144927536231  4.61745244003309 0  4.99379652605459 0  C 5.3701406120761 0  5.69582299421009 0.110144927536231  5.97084367245658 0.330434782608696  L 17.5 9.56521739130435  L 29.0291563275434 0.330434782608696  C 29.3041770057899 0.110144927536231  29.6298593879239 0  30.0062034739454 0  C 30.3825475599669 0  30.7082299421009 0.110144927536231  30.9832506203474 0.330434782608696  L 34.5874689826303 3.2  C 34.8624896608768 3.42028985507246  35 3.68405797101449  35 3.99130434782609  Z " fill-rule="nonzero" fill="#000000" stroke="none" transform="matrix(1 0 0 1 148 825 )" />
  </g>
</svg>