<?xml version="1.0" encoding="utf-8"?>
<svg version="1.1" xmlns:xlink="http://www.w3.org/1999/xlink" width="145px" height="139px" xmlns="http://www.w3.org/2000/svg">
  <g transform="matrix(1 0 0 1 -1784 -263 )">
    <path d="M 27 101  L 40 101  L 40 113  L 27 113  L 27 101  Z M 27 26  L 40 26  L 40 38  L 27 38  L 27 26  Z M 105 26  L 118 26  L 118 38  L 105 38  L 105 26  Z M 14 88  L 14 126  L 53 126  L 53 88  L 14 88  Z M 14 13  L 14 51  L 53 51  L 53 13  L 14 13  Z M 92 13  L 92 51  L 131 51  L 131 13  L 92 13  Z M 0 75  L 66 75  L 66 139  L 0 139  L 0 75  Z M 105 126  L 118 126  L 118 139  L 105 139  L 105 126  Z M 131 126  L 145 126  L 145 139  L 131 139  L 131 126  Z M 131 75  L 145 75  L 145 113  L 105 113  L 105 101  L 92 101  L 92 139  L 79 139  L 79 75  L 118 75  L 118 88  L 131 88  L 131 75  Z M 0 0  L 66 0  L 66 64  L 0 64  L 0 0  Z M 79 0  L 145 0  L 145 64  L 79 64  L 79 0  Z " fill-rule="nonzero" fill="#000000" stroke="none" transform="matrix(1 0 0 1 1784 263 )" />
  </g>
</svg>