<?xml version="1.0" encoding="utf-8"?>
<svg version="1.1" xmlns:xlink="http://www.w3.org/1999/xlink" width="20px" height="20px" preserveAspectRatio="xMinYMid meet" viewBox="1849 64  20 18" xmlns="http://www.w3.org/2000/svg">
  <path d="M 1598 138  L 1690 138  L 1690 60  L 1859 60  L 1859 73  " stroke-width="2" stroke-dasharray="6,2" stroke="#00ffff" fill="none" />
  <path d="M 1595.5 134.5  A 3.5 3.5 0 0 0 1592 138 A 3.5 3.5 0 0 0 1595.5 141.5 A 3.5 3.5 0 0 0 1599 138 A 3.5 3.5 0 0 0 1595.5 134.5 Z M 1595.5 136.5  A 1.5 1.5 0 0 1 1597 138 A 1.5 1.5 0 0 1 1595.5 139.5 A 1.5 1.5 0 0 1 1594 138 A 1.5 1.5 0 0 1 1595.5 136.5 Z M 1851.4 72  L 1859 79  L 1866.6 72  L 1851.4 72  Z M 1856.2 74  L 1861.8 74  L 1859 76  L 1856.2 74  Z " fill-rule="nonzero" fill="#00ffff" stroke="none" />
</svg>