<?xml version="1.0" encoding="utf-8"?>
<svg version="1.1" xmlns:xlink="http://www.w3.org/1999/xlink" width="30px" height="28px" xmlns="http://www.w3.org/2000/svg">
  <g transform="matrix(1 0 0 1 -3246 -202 )">
    <path d="M 24.7265625 11.8671875  C 24.9609375 11.6484375  25.078125 11.375  25.078125 11.046875  C 25.078125 10.7065972222222  24.9609375 10.4270833333333  24.7265625 10.2083333333333  L 22.94921875 8.56770833333333  C 22.7018229166667 8.33680555555555  22.4088541666667 8.22135416666667  22.0703125 8.22135416666667  C 21.7317708333333 8.22135416666667  21.4388020833333 8.33680555555555  21.19140625 8.56770833333333  L 13.22265625 15.9869791666667  L 8.80859375 11.8671875  C 8.56119791666667 11.6362847222222  8.26822916666667 11.5208333333333  7.9296875 11.5208333333333  C 7.59114583333333 11.5208333333333  7.29817708333333 11.6362847222222  7.05078125 11.8671875  L 5.2734375 13.5078125  C 5.0390625 13.7265625  4.921875 14.0060763888889  4.921875 14.3463541666667  C 4.921875 14.6744791666667  5.0390625 14.9479166666667  5.2734375 15.1666666666667  L 12.34375 21.765625  C 12.5911458333333 21.9965277777778  12.8841145833333 22.1119791666667  13.22265625 22.1119791666667  C 13.57421875 22.1119791666667  13.8736979166667 21.9965277777778  14.12109375 21.765625  L 24.7265625 11.8671875  Z M 27.98828125 6.97265625  C 29.3294270833333 9.11762152777778  30 11.4600694444444  30 14  C 30 16.5399305555556  29.3294270833333 18.8823784722222  27.98828125 21.02734375  C 26.6471354166667 23.1723090277778  24.8274739583333 24.8706597222222  22.529296875 26.1223958333333  C 20.2311197916667 27.3741319444444  17.7213541666667 28  15 28  C 12.2786458333333 28  9.76888020833333 27.3741319444444  7.470703125 26.1223958333333  C 5.17252604166667 24.8706597222222  3.35286458333333 23.1723090277778  2.01171875 21.02734375  C 0.670572916666667 18.8823784722222  0 16.5399305555556  0 14  C 0 11.4600694444444  0.670572916666667 9.11762152777778  2.01171875 6.97265625  C 3.35286458333333 4.82769097222222  5.17252604166667 3.12934027777778  7.470703125 1.87760416666667  C 9.76888020833333 0.625868055555553  12.2786458333333 0  15 0  C 17.7213541666667 0  20.2311197916667 0.625868055555553  22.529296875 1.87760416666667  C 24.8274739583333 3.12934027777778  26.6471354166667 4.82769097222222  27.98828125 6.97265625  Z " fill-rule="nonzero" fill="#000000" stroke="none" transform="matrix(1 0 0 1 3246 202 )" />
  </g>
</svg>