<?xml version="1.0" encoding="utf-8"?>
<svg version="1.1" xmlns:xlink="http://www.w3.org/1999/xlink" width="13px" height="23px" xmlns="http://www.w3.org/2000/svg">
  <g transform="matrix(1 0 0 1 -512 -415 )">
    <path d="M 13 11.5  C 13 11.747311827957  12.9205276705277 11.9613316790736  12.761583011583 12.1420595533499  L 3.4507722007722 22.7289081885856  C 3.29182754182754 22.9096360628619  3.1036036036036 23  2.88610038610039 23  C 2.66859716859717 23  2.48037323037323 22.9096360628619  2.32142857142857 22.7289081885856  L 0.238416988416988 20.3604218362283  C 0.0794723294723296 20.179693961952  0 19.9656741108354  0 19.7183622828784  C 0 19.4710504549214  0.0794723294723296 19.2570306038048  0.238416988416988 19.0763027295285  L 6.9015444015444 11.5  L 0.238416988416988 3.92369727047146  C 0.0794723294723296 3.7429693961952  0 3.52894954507858  0 3.28163771712159  C 0 3.0343258891646  0.0794723294723296 2.82030603804797  0.238416988416988 2.63957816377171  L 2.32142857142857 0.271091811414391  C 2.48037323037323 0.0903639371381296  2.66859716859717 0  2.88610038610039 0  C 3.1036036036036 0  3.29182754182754 0.0903639371381296  3.4507722007722 0.271091811414391  L 12.761583011583 10.8579404466501  C 12.9205276705277 11.0386683209264  13 11.252688172043  13 11.5  Z " fill-rule="nonzero" fill="#000000" stroke="none" transform="matrix(1 0 0 1 512 415 )" />
  </g>
</svg>