<?xml version="1.0" encoding="utf-8"?>
<svg version="1.1" xmlns:xlink="http://www.w3.org/1999/xlink" width="18px" height="14px" xmlns="http://www.w3.org/2000/svg">
  <g transform="matrix(1 0 0 1 -593 -422 )">
    <path d="M 18 3.10434782608696  C 18 3.34331723027375  17.9292803970223 3.54847020933977  17.787841191067 3.71980676328502  L 9.50248138957816 13.7429951690821  C 9.36104218362283 13.9143317230274  9.19354838709677 14  9 14  C 8.80645161290323 14  8.63895781637717 13.9143317230274  8.49751861042184 13.7429951690821  L 0.212158808933002 3.71980676328502  C 0.0707196029776676 3.54847020933977  0 3.34331723027375  0 3.10434782608696  C 0 2.86537842190016  0.0707196029776676 2.66022544283414  0.212158808933002 2.48888888888889  L 2.06575682382134 0.257004830917874  C 2.20719602977668 0.0856682769726242  2.37468982630273 0  2.5682382133995 0  C 2.76178660049628 0  2.92928039702233 0.0856682769726242  3.07071960297767 0.257004830917874  L 9 7.43961352657005  L 14.9292803970223 0.257004830917874  C 15.0707196029777 0.0856682769726242  15.2382133995037 0  15.4317617866005 0  C 15.6253101736973 0  15.7928039702233 0.0856682769726242  15.9342431761787 0.257004830917874  L 17.787841191067 2.48888888888889  C 17.9292803970223 2.66022544283414  18 2.86537842190016  18 3.10434782608696  Z " fill-rule="nonzero" fill="#000000" stroke="none" transform="matrix(1 0 0 1 593 422 )" />
  </g>
</svg>