<?xml version="1.0" encoding="utf-8"?>
<svg version="1.1" xmlns:xlink="http://www.w3.org/1999/xlink" width="14px" height="18px" xmlns="http://www.w3.org/2000/svg">
  <g transform="matrix(1 0 0 1 -2824 -1419 )">
    <path d="M 13.7594501718213 1.08216432865731  C 13.9198167239404 1.20240480961924  14 1.34068136272545  14 1.49699398797595  C 14 1.65330661322645  13.9198167239404 1.79158316633266  13.7594501718213 1.91182364729459  L 4.30584192439863 9  L 13.7594501718213 16.0881763527054  C 13.9198167239404 16.2084168336673  14 16.3466933867735  14 16.503006012024  C 14 16.6593186372745  13.9198167239404 16.7975951903808  13.7594501718213 16.9178356713427  L 12.5567010309278 17.8196392785571  C 12.3963344788087 17.939879759519  12.2119129438717 18  12.0034364261168 18  C 11.794959908362 18  11.610538373425 17.939879759519  11.4501718213058 17.8196392785571  L 0.240549828178694 9.41482965931864  C 0.0801832760595648 9.29458917835671  0 9.1563126252505  0 9  C 0 8.8436873747495  0.0801832760595648 8.70541082164329  0.240549828178694 8.58517034068136  L 11.4501718213058 0.180360721442886  C 11.610538373425 0.0601202404809613  11.794959908362 0  12.0034364261168 0  C 12.2119129438717 0  12.3963344788087 0.0601202404809613  12.5567010309278 0.180360721442886  L 13.7594501718213 1.08216432865731  Z " fill-rule="nonzero" fill="#000000" stroke="none" transform="matrix(1 0 0 1 2824 1419 )" />
  </g>
</svg>