<?xml version="1.0" encoding="utf-8"?>
<svg version="1.1" xmlns:xlink="http://www.w3.org/1999/xlink" width="10px" height="23px" preserveAspectRatio="xMidYMin meet" viewBox="476 641  8 23" xmlns="http://www.w3.org/2000/svg">
  <path d="M 364 659  L 480 659  L 480 646  L 597 646  " stroke-width="2" stroke-dasharray="6,2" stroke="#0000bf" fill="none" />
  <path d="M 361.5 655.5  A 3.5 3.5 0 0 0 358 659 A 3.5 3.5 0 0 0 361.5 662.5 A 3.5 3.5 0 0 0 365 659 A 3.5 3.5 0 0 0 361.5 655.5 Z M 361.5 657.5  A 1.5 1.5 0 0 1 363 659 A 1.5 1.5 0 0 1 361.5 660.5 A 1.5 1.5 0 0 1 360 659 A 1.5 1.5 0 0 1 361.5 657.5 Z M 596 653.6  L 603 646  L 596 638.4  L 596 653.6  Z M 598 648.8  L 598 643.2  L 600 646  L 598 648.8  Z " fill-rule="nonzero" fill="#0000bf" stroke="none" />
</svg>