<?xml version="1.0" encoding="utf-8"?>
<svg version="1.1" xmlns:xlink="http://www.w3.org/1999/xlink" width="12px" height="12px" viewBox="610 530  12 12" xmlns="http://www.w3.org/2000/svg">
  <path d="M 616 530  C 619.36 530  622 532.64  622 536  C 622 539.36  619.36 542  616 542  C 612.64 542  610 539.36  610 536  C 610 532.64  612.64 530  616 530  Z " fill-rule="nonzero" fill="#ffffff" stroke="none" />
  <path d="M 616 530.5  C 619.08 530.5  621.5 532.92  621.5 536  C 621.5 539.08  619.08 541.5  616 541.5  C 612.92 541.5  610.5 539.08  610.5 536  C 610.5 532.92  612.92 530.5  616 530.5  Z " stroke-width="1" stroke="#797979" fill="none" />
  <path d="M 616 539  C 614.32 539  613 537.68  613 536  C 613 534.32  614.32 533  616 533  C 617.68 533  619 534.32  619 536  C 619 537.68  617.68 539  616 539  " fill-rule="nonzero" fill="#797979" stroke="none" />
</svg>